<svg width="42" height="43" viewBox="0 0 42 43" fill="none" xmlns="http://www.w3.org/2000/svg">
<path d="M1.85073 20.2818C5.06155 5.57103 16.0483 3.20387 21.1402 3.85914C25.0391 3.65566 27.5155 4.89377 28.2663 5.53826C36.6538 7.66789 39.9793 19.7221 40.5936 25.4831C41.4127 40.6853 25.1538 42.7112 16.9219 41.8239C0.147026 40.0546 -0.115082 26.7253 1.85073 20.2818Z" stroke="#6B4BD5" stroke-width="2"/>
<path d="M28.2662 5.29252C31.6791 3.96833 38.6359 1.47557 39.1601 2.09808C40.2931 4.05024 41.7402 9.7156 38.4639 16.7598M2.95639 16.7598C2.20556 15.8588 0.769428 12.1729 1.03154 4.63726L2.42401 2.09808L13.4407 5.29252" stroke="#6B4BD5" stroke-width="2"/>
<circle cx="28.8803" cy="21.101" r="2.3344" fill="#6B4BD5"/>
<circle cx="12.6625" cy="21.101" r="2.3344" fill="#6B4BD5"/>
<path d="M14.8331 27.9402C14.9282 28.5475 15.1943 29.4614 15.678 30.1385C16.481 31.2624 18.2932 31.449 19.4775 30.7381C20.1698 30.3226 20.7641 29.4871 20.8943 27.9402C20.9406 28.8752 21.2744 30.3462 22.1792 30.9308C23.1653 31.5679 24.5901 31.152 25.5501 30.4761C26.1902 30.0254 26.6924 29.2403 26.587 27.9402M29.6176 30.2746L32.9349 31.8718M31.7063 27.9402H35.2284M8.64898 31.8718L11.8434 29.865M6.39648 27.9402H9.71379" stroke="#6B4BD5" stroke-width="2"/>
</svg>
